<?xml version="1.0" encoding="utf-8"?>
<!-- Generator: Adobe Illustrator 23.0.1, SVG Export Plug-In . SVG Version: 6.00 Build 0)  -->
<svg version="1.1" id="Шар_1" xmlns="http://www.w3.org/2000/svg" xmlns:xlink="http://www.w3.org/1999/xlink" x="0px" y="0px"
	 viewBox="0 0 565.73 59.44" style="enable-background:new 0 0 565.73 59.44;" xml:space="preserve">
<style type="text/css">
	.st0{fill:#FFFFFF;}
</style>
<path class="st0" d="M7.84,12.14h9.1l9.79,19.79l10.1-19.79h8.37L29.52,41.3c-3.05,5.68-7.42,8.53-12.37,8.53
	c-1.95,0-3.95-0.42-6-1.26l2.05-6.47c1.37,0.42,2.58,0.68,3.68,0.68c2.11,0,3.74-0.95,5.16-3.16l0.32-0.42L7.84,12.14"/>
<path class="st0" d="M131.55,15.26l0.14-2.98l4.23-0.14l4.23-0.14L140,13.82c-0.14,1.63-0.34,1.82-2.07,2.35
	c-1.06,0.34-2.98,0.91-4.23,1.3l-2.31,0.72L131.55,15.26z"/>
<path class="st0" d="M131.55,34.52l0.14-14.5l4.08-1.3c2.26-0.77,4.13-1.39,4.23-1.39c0.05,0,0.1,7.16,0.1,15.85v15.85h-4.32h-4.32
	L131.55,34.52z"/>
<path class="st0" d="M461.92,23.79"/>
<polygon class="st0" points="464.13,23.6 464.13,19.01 472.77,16.59 472.77,21.19 "/>
<polygon class="st0" points="464.13,16.95 464.13,12.36 472.77,12.37 472.77,14.55 "/>
<polygon class="st0" points="472.77,23.26 472.77,49.03 464.13,49.03 464.13,25.59 "/>
<path class="st0" d="M47.52,30.56c0-11.1,8.53-19.05,20-19.05c6.37,0,11.68,2.32,15.16,6.53l-5.47,5.05
	c-2.47-2.84-5.58-4.32-9.26-4.32c-6.89,0-11.79,4.84-11.79,11.79c0,6.95,4.89,11.79,11.79,11.79c3.68,0,6.79-1.47,9.26-4.37
	l5.47,5.05c-3.47,4.26-8.79,6.58-15.21,6.58C56.05,49.61,47.52,41.66,47.52,30.56z"/>
<path class="st0" d="M121.83,12.14v36.84h-8.47V19.09H96.73v29.89h-8.47V12.14H121.83z"/>
<path class="st0" d="M197.25,12.14v36.84h-48.63V12.14h8.47v29.89h11.63V12.14h8.47v29.89h11.58V12.14H197.25z"/>
<path class="st0" d="M240.19,12.14v36.84h-8.53v-15.1h-16.74v15.1h-8.53V12.14h8.53v14.53h16.74V12.14H240.19z"/>
<path class="st0" d="M274.35,41.09h-17.1l-3.26,7.89h-8.74l16.42-36.84h8.42l16.47,36.84h-8.95L274.35,41.09z M271.67,34.61
	l-5.84-14.1l-5.84,14.1H271.67z"/>
<path class="st0" d="M339.61,12.14L323.93,41.3c-3.05,5.68-7.42,8.53-12.37,8.53c-1.95,0-3.95-0.42-6-1.26l2.05-6.47
	c1.37,0.42,2.58,0.68,3.68,0.68c2.11,0,3.74-0.95,5.16-3.16l0.32-0.42l-14.53-27.05h9.1l9.79,19.79l10.1-19.79H339.61z"/>
<path class="st0" d="M358.71,34.14h-5.89v14.84h-8.47V12.14h8.47v14.89h6.11l9.68-14.89h9l-12.05,17.79l12.42,19.05h-9.68
	L358.71,34.14z"/>
<path class="st0" d="M415.08,25.51c0,8.21-6.16,13.32-16,13.32h-7.42v10.16h-8.53V12.14h15.95
	C408.92,12.14,415.08,17.24,415.08,25.51z M406.45,25.51c0-4.05-2.63-6.42-7.84-6.42h-6.95v12.79h6.95
	C403.82,31.87,406.45,29.51,406.45,25.51z"/>
<path class="st0" d="M446.18,41.09h-17.1l-3.26,7.89h-8.74l16.42-36.84h8.42l16.47,36.84h-8.95L446.18,41.09z M443.5,34.61
	l-5.84-14.1l-5.84,14.1H443.5z"/>
<path class="st0" d="M514.34,12.14v36.84h-8.53v-15.1h-16.74v15.1h-8.53V12.14h8.53v14.53h16.74V12.14H514.34z"/>
<path class="st0" d="M548.49,41.09h-17.1l-3.26,7.89h-8.74l16.42-36.84h8.42l16.47,36.84h-8.95L548.49,41.09z M545.81,34.61
	l-5.84-14.1l-5.84,14.1H545.81z"/>
</svg>
