<?xml version="1.0" encoding="utf-8"?>
<!-- Generator: Adobe Illustrator 23.0.1, SVG Export Plug-In . SVG Version: 6.00 Build 0)  -->
<svg version="1.1" id="Шар_1" xmlns="http://www.w3.org/2000/svg" xmlns:xlink="http://www.w3.org/1999/xlink" x="0px" y="0px"
	 viewBox="0 0 262.9 57.3" style="enable-background:new 0 0 262.9 57.3;" xml:space="preserve">
<style type="text/css">
	.st0{fill:#FFFFFF;}
</style>
<g id="соціальна_мережа___команди_партії_1_">
	<g id="соціальна_мережа___команди_партії">
		<path class="st0" d="M4,16.3C4,10,8.8,5.6,15.3,5.6c3.6,0,6.6,1.3,8.5,3.7l-3.1,2.8c-1.4-1.6-3.1-2.4-5.2-2.4
			c-3.9,0-6.6,2.7-6.6,6.6s2.8,6.6,6.6,6.6c2.1,0,3.8-0.8,5.2-2.5l3.1,2.8c-2,2.4-4.9,3.7-8.5,3.7C8.8,27,4,22.5,4,16.3z"/>
		<path class="st0" d="M26,19.5c0-4.2,3.3-7.3,7.7-7.3c4.5,0,7.7,3.1,7.7,7.3s-3.3,7.3-7.7,7.3C29.3,26.9,26,23.7,26,19.5z
			 M38.2,19.5c0-2.7-1.9-4.5-4.4-4.5s-4.4,1.8-4.4,4.5s1.9,4.5,4.4,4.5S38.2,22.2,38.2,19.5z"/>
		<path class="st0" d="M59.5,23.9v5.7h-3v-3H44.6V12.5h3.3v11.5h6.3V12.5h3.3v11.5H59.5z"/>
		<path class="st0" d="M62.2,12.5h3.3v14.1h-3.3V12.5z"/>
		<path class="st0" d="M79.2,23.6h-6.6l-1.3,3H68l6.3-14.2h3.2l6.3,14.2h-3.4L79.2,23.6z M78.2,21.1l-2.3-5.4l-2.2,5.4H78.2z"/>
		<path class="st0" d="M99.1,12.5v14.1h-3.2V15.1H91l-0.1,3c-0.2,5.6-1,8.8-4.3,8.8c-0.5,0-1-0.1-1.6-0.2l0.2-2.8
			c0.2,0.1,0.4,0.1,0.6,0.1c1.7,0,2.1-2.1,2.2-5.7l0.2-5.7C88.2,12.5,99.1,12.5,99.1,12.5z"/>
		<path class="st0" d="M115.5,21.7c0,3.3-2.2,4.9-5.8,4.9h-6.4V12.5h3.3v4.7h3.6C113.5,17.1,115.5,18.6,115.5,21.7z M112.2,21.7
			c0-1.6-1-2.2-2.7-2.2h-2.9v4.6h2.9C111.2,24.2,112.2,23.3,112.2,21.7z"/>
		<path class="st0" d="M131.4,12.5v14.1h-3.3v-5.8h-6.4v5.8h-3.3V12.5h3.3V18h6.4v-5.6C128.1,12.5,131.4,12.5,131.4,12.5z"/>
		<path class="st0" d="M145.2,23.6h-6.6l-1.3,3H134l6.3-14.2h3.2l6.3,14.2h-3.4L145.2,23.6z M144.1,21.1l-2.2-5.4l-2.2,5.4H144.1z"
			/>
		<path class="st0" d="M171.6,26.6l0-8.5l-4.2,7h-1.5l-4.2-6.8v8.3h-3.1V12.5h2.7l5.3,8.8l5.2-8.8h2.7l0,14.1
			C174.6,26.6,171.6,26.6,171.6,26.6z"/>
		<path class="st0" d="M189.7,24v2.6h-11V12.5h10.7v2.6H182v3.1h6.6v2.5H182V24L189.7,24L189.7,24L189.7,24z"/>
		<path class="st0" d="M205.2,17.6c0,3.1-2.4,5.1-6.1,5.1h-2.9v3.9H193V12.5h6.1C202.9,12.5,205.2,14.4,205.2,17.6z M201.9,17.6
			c0-1.6-1-2.5-3-2.5h-2.7V20h2.7C200.9,20,201.9,19.1,201.9,17.6z"/>
		<path class="st0" d="M219,24v2.6h-11V12.5h10.7v2.6h-7.4v3.1h6.6v2.5h-6.6V24L219,24L219,24L219,24z"/>
		<path class="st0" d="M234.9,20.9h-2.1v5.7h-3.2v-5.7h-2.1l-3.2,5.7h-3.8l4.3-7.4l-4-6.8h3.5l3.2,5.7h2.2v-5.7h3.2v5.7h2.1l3.2-5.7
			h3.5l-4,6.8l4.2,7.4h-3.8L234.9,20.9z"/>
		<path class="st0" d="M253.4,23.6h-6.6l-1.3,3h-3.4l6.3-14.2h3.2l6.3,14.2h-3.4L253.4,23.6z M252.3,21.1l-2.2-5.4l-2.2,5.4H252.3z"
			/>
		<path class="st0" d="M124.6,42.8h-2.3v5.7h-3.3V34.4h3.3v5.7h2.3l3.7-5.7h3.5l-4.6,6.8l4.8,7.3h-3.7L124.6,42.8z"/>
		<path class="st0" d="M136.8,41.4c0-4.2,3.3-7.3,7.7-7.3c4.5,0,7.7,3.1,7.7,7.3s-3.3,7.3-7.7,7.3C140,48.7,136.8,45.6,136.8,41.4z
			 M148.9,41.4c0-2.7-1.9-4.5-4.4-4.5s-4.4,1.8-4.4,4.5s1.9,4.5,4.4,4.5S148.9,44.1,148.9,41.4z"/>
		<path class="st0" d="M171.9,48.5l0-8.5l-4.2,7h-1.5l-4.2-6.8v8.3H159V34.4h2.7l5.3,8.8l5.2-8.8h2.7l0,14.2
			C175,48.5,171.9,48.5,171.9,48.5z"/>
		<path class="st0" d="M192.3,45.5h-6.6l-1.3,3h-3.4l6.3-14.1h3.2l6.3,14.2h-3.4L192.3,45.5z M191.3,43l-2.2-5.4l-2.2,5.4
			C186.8,43,191.3,43,191.3,43z"/>
		<path class="st0" d="M216.1,34.4v14.2h-3.3v-5.8h-6.4v5.8h-3.3V34.4h3.3v5.6h6.4v-5.6H216.1z"/>
		<path class="st0" d="M238.4,45.8v5.6h-3v-2.9h-10v2.9h-3l0-5.6h0.6c1.8-0.1,2.3-3.1,2.4-7.1l0.2-4.4h10.9v11.5L238.4,45.8
			L238.4,45.8z M226.9,45.8h6.3V37h-4.9l-0.1,2.1C228.2,42.1,227.8,44.7,226.9,45.8z"/>
		<path class="st0" d="M244.9,34.4h3.3v9.2l6.8-9.2h3.1v14.2h-3.2v-9.2l-6.8,9.2h-3.1L244.9,34.4L244.9,34.4z"/>
	</g>
</g>
</svg>
