<?xml version="1.0" encoding="utf-8"?>
<!-- Generator: Adobe Illustrator 23.0.1, SVG Export Plug-In . SVG Version: 6.00 Build 0)  -->
<svg version="1.1" id="Шар_1" xmlns="http://www.w3.org/2000/svg" xmlns:xlink="http://www.w3.org/1999/xlink" x="0px" y="0px"
	 viewBox="0 0 262.94 57.34" style="enable-background:new 0 0 262.94 57.34;" xml:space="preserve">
<style type="text/css">
	.st0{fill:#FFFFFF;}
</style>
<g id="соціальна_мережа___команди_партії_1_">
	<g id="соціальна_мережа___команди_партії">
		<path class="st0" d="M4.04,16.28c0-6.24,4.79-10.7,11.23-10.7c3.58,0,6.56,1.3,8.51,3.67l-3.07,2.84c-1.39-1.6-3.13-2.42-5.2-2.42
			c-3.87,0-6.62,2.72-6.62,6.62s2.75,6.62,6.62,6.62c2.07,0,3.81-0.83,5.2-2.45l3.07,2.84c-1.95,2.39-4.94,3.69-8.54,3.69
			C8.82,26.98,4.04,22.51,4.04,16.28z"/>
		<path class="st0" d="M26,19.55c0-4.21,3.28-7.32,7.74-7.32c4.45,0,7.74,3.09,7.74,7.32s-3.3,7.32-7.74,7.32
			C29.27,26.86,26,23.75,26,19.55z M38.17,19.55c0-2.69-1.9-4.53-4.43-4.53s-4.43,1.84-4.43,4.53s1.9,4.53,4.43,4.53
			S38.17,22.23,38.17,19.55z"/>
		<path class="st0" d="M59.46,23.95v5.66h-3.01v-2.99H44.62V12.47h3.26v11.48h6.31V12.47h3.25v11.48H59.46z"/>
		<path class="st0" d="M62.23,12.47h3.26v14.15h-3.26V12.47z"/>
		<path class="st0" d="M79.2,23.59h-6.57l-1.25,3.03h-3.36l6.31-14.15h3.23l6.33,14.15h-3.44L79.2,23.59z M78.17,21.1l-2.25-5.42
			l-2.24,5.42H78.17z"/>
		<path class="st0" d="M99.12,12.47v14.15h-3.23V15.14h-4.85l-0.1,2.95c-0.18,5.56-0.97,8.75-4.29,8.75c-0.49,0-1.01-0.08-1.62-0.22
			l0.2-2.77c0.2,0.06,0.38,0.08,0.59,0.08c1.66,0,2.08-2.1,2.22-5.72l0.2-5.74C88.24,12.47,99.12,12.47,99.12,12.47z"/>
		<path class="st0" d="M115.48,21.69c0,3.25-2.18,4.93-5.82,4.93h-6.39V12.47h3.26v4.65h3.6C113.54,17.12,115.48,18.64,115.48,21.69
			z M112.18,21.75c0-1.56-1.01-2.2-2.71-2.2h-2.95v4.65h2.95C111.15,24.2,112.18,23.35,112.18,21.75z"/>
		<path class="st0" d="M131.43,12.47v14.15h-3.28v-5.8h-6.43v5.8h-3.28V12.47h3.28v5.58h6.43v-5.58H131.43z"/>
		<path class="st0" d="M145.16,23.59h-6.57l-1.25,3.03h-3.36l6.31-14.15h3.23l6.33,14.15h-3.44L145.16,23.59z M144.13,21.1
			l-2.24-5.42l-2.24,5.42H144.13z"/>
		<path class="st0" d="M171.55,26.62l-0.02-8.47l-4.17,6.98h-1.46l-4.17-6.81v8.31h-3.07V12.47h2.71l5.3,8.79l5.22-8.79h2.71
			l0.02,14.15C174.62,26.62,171.55,26.62,171.55,26.62z"/>
		<path class="st0" d="M189.71,23.99v2.63h-10.96V12.47h10.7v2.63h-7.44v3.07h6.57v2.55h-6.57V24h7.7V23.99z"/>
		<path class="st0" d="M205.24,17.6c0,3.15-2.37,5.12-6.15,5.12h-2.85v3.9h-3.28V12.47h6.13C202.88,12.47,205.24,14.43,205.24,17.6z
			 M201.93,17.6c0-1.56-1.01-2.47-3.01-2.47h-2.67v4.91h2.67C200.92,20.05,201.93,19.14,201.93,17.6z"/>
		<path class="st0" d="M218.98,23.99v2.63h-10.96V12.47h10.7v2.63h-7.44v3.07h6.57v2.55h-6.57V24h7.7V23.99z"/>
		<path class="st0" d="M234.93,20.92h-2.06v5.7h-3.21v-5.7h-2.1l-3.17,5.7h-3.78l4.25-7.4l-3.98-6.75h3.46l3.17,5.72h2.16v-5.72
			h3.21v5.72h2.1l3.19-5.72h3.46l-3.96,6.75l4.23,7.4h-3.78L234.93,20.92z"/>
		<path class="st0" d="M253.38,23.59h-6.57l-1.25,3.03h-3.36l6.31-14.15h3.23l6.33,14.15h-3.44L253.38,23.59z M252.34,21.1
			l-2.24-5.42l-2.24,5.42H252.34z"/>
		<path class="st0" d="M13.62,42.81h-2.26v5.7H8.11V34.36h3.25v5.72h2.35l3.72-5.72h3.46l-4.63,6.83l4.77,7.32h-3.72L13.62,42.81z"
			/>
		<path class="st0" d="M25.75,41.44c0-4.21,3.28-7.32,7.74-7.32c4.45,0,7.74,3.09,7.74,7.32s-3.3,7.32-7.74,7.32
			C29.03,48.75,25.75,45.64,25.75,41.44z M37.93,41.44c0-2.69-1.9-4.53-4.43-4.53s-4.43,1.84-4.43,4.53s1.9,4.53,4.43,4.53
			S37.93,44.12,37.93,41.44z"/>
		<path class="st0" d="M60.9,48.51l-0.02-8.47l-4.17,6.98h-1.46l-4.17-6.81v8.31h-3.07V34.36h2.71l5.3,8.79l5.22-8.79h2.71
			l0.02,14.15C63.97,48.51,60.9,48.51,60.9,48.51z"/>
		<path class="st0" d="M81.32,45.48h-6.57l-1.25,3.03h-3.36l6.31-14.15h3.23l6.33,14.15h-3.44L81.32,45.48z M80.29,42.99l-2.24-5.42
			l-2.24,5.42H80.29z"/>
		<path class="st0" d="M105.12,34.36v14.15h-3.28v-5.8h-6.43v5.8h-3.28V34.36h3.28v5.58h6.43v-5.58H105.12z"/>
		<path class="st0" d="M127.41,45.84v5.6h-3.03v-2.93h-9.99v2.93h-3.03l0.02-5.6h0.57c1.84-0.06,2.3-3.09,2.45-7.06l0.16-4.43h10.88
			v11.48h1.97V45.84z M115.86,45.84h6.33v-8.81h-4.85l-0.06,2.06C117.16,42.1,116.84,44.69,115.86,45.84z"/>
		<path class="st0" d="M133.86,34.36h3.26v9.22l6.75-9.22h3.07v14.15h-3.23v-9.2l-6.75,9.2h-3.09V34.36H133.86z"/>
		<path class="st0" d="M177.58,34.36v14.15h-3.26V37.03h-6.39v11.48h-3.26V34.36H177.58z"/>
		<path class="st0" d="M194.93,45.48h-6.57l-1.25,3.03h-3.36l6.31-14.15h3.23l6.33,14.15h-3.44L194.93,45.48z M193.9,42.99
			l-2.24-5.42l-2.24,5.42H193.9z"/>
		<path class="st0" d="M218.03,39.49c0,3.15-2.37,5.12-6.15,5.12h-2.85v3.9h-3.28V34.36h6.13
			C215.66,34.36,218.03,36.32,218.03,39.49z M214.71,39.49c0-1.56-1.01-2.47-3.01-2.47h-2.67v4.91h2.67
			C213.7,41.94,214.71,41.03,214.71,39.49z"/>
		<path class="st0" d="M234.87,37.03h-4.53v11.48h-3.23V37.03h-4.51v-2.67h12.27L234.87,37.03L234.87,37.03z"/>
		<path class="st0" d="M241.19,34.36h3.26v14.15h-3.26V34.36z"/>
		<path class="st0" d="M250.31,31.71c0-0.83,0.63-1.4,1.42-1.4s1.4,0.57,1.4,1.4c0,0.83-0.61,1.39-1.4,1.39
			C250.93,33.11,250.31,32.54,250.31,31.71z M252.13,34.36h3.28v14.15h-3.28V34.36z M254.41,31.71c0-0.83,0.63-1.4,1.4-1.4
			c0.79,0,1.42,0.57,1.42,1.4c0,0.83-0.63,1.39-1.42,1.39C255.04,33.11,254.41,32.54,254.41,31.71z"/>
	</g>
</g>
</svg>
